<svg width="150" height="23" viewBox="0 0 150 23" fill="none" xmlns="http://www.w3.org/2000/svg">
<path d="M70.0234 22.0492V0H92.0727V22.0492H70.0234ZM72.1942 19.8789H72.6418H74.6229V19.4307H72.6418V17.45H72.1942V19.4307V19.8789ZM87.4732 19.8789H89.4549H89.9025V19.4307V17.45H89.4549V19.4307H87.4732V19.8789ZM87.8761 18.1734C88.0536 18.1734 88.197 18.0302 88.197 17.8524C88.197 16.487 88.197 5.56225 88.197 4.1968C88.197 4.01908 88.0536 3.87581 87.8761 3.87581C86.5102 3.87581 75.5865 3.87581 74.2211 3.87581C74.0425 3.87581 73.8991 4.01908 73.8991 4.1968C73.8991 5.56225 73.8991 16.487 73.8991 17.8524C73.8991 18.0302 74.0425 18.1734 74.2211 18.1734C76.9519 18.1734 86.5102 18.1734 87.8761 18.1734ZM76.6558 17.7258V15.8652H78.5162V17.7258H76.6558ZM81.2724 17.7258V15.8652H83.1328V17.7258H81.2724ZM85.8884 17.7258V15.8652H87.7494V17.7258H85.8884ZM74.3473 15.417V13.557H76.2077V15.417H74.3473ZM78.9638 15.417V13.557H80.8248V15.417H78.9638ZM83.5804 15.417V13.557H85.4408V15.417H83.5804ZM76.6558 13.1088V11.2487H78.5162V13.1088H76.6558ZM81.2724 13.1088V11.2487H83.1328V13.1088H81.2724ZM85.8884 13.1088V11.2487H87.7494V13.1088H85.8884ZM74.3473 10.8005V8.94047H76.2077V10.8005H74.3473ZM78.9638 10.8005V8.94047H80.8248V10.8005H78.9638ZM83.5804 10.8005V8.94047H85.4408V10.8005H83.5804ZM76.6558 8.49226V6.63164H78.5162V8.49226H76.6558ZM81.2724 8.49226V6.63164H83.1328V8.49226H81.2724ZM85.8884 8.49226V6.63164H87.7494V8.49226H85.8884ZM74.3473 6.18404V4.32341H76.2077V6.18404H74.3473ZM78.9638 6.18404V4.32341H80.8248V6.18404H78.9638ZM83.5804 6.18404V4.32341H85.4408V6.18404H83.5804ZM72.1942 4.59925H72.6418V2.61851H74.6229V2.17031H72.6418H72.1942V2.61851V4.59925ZM89.4549 4.59925H89.9025V2.61851V2.17031H89.4549H87.4732V2.61851H89.4549V4.59925Z" fill="#358C65"/>
<path d="M104.825 13.2415C104.879 13.2415 104.934 13.2526 104.988 13.2747C105.043 13.2923 105.095 13.3254 105.145 13.3739L106.058 14.3073C105.658 14.8148 105.156 15.1987 104.552 15.4591C103.953 15.7151 103.242 15.8431 102.421 15.8431C101.667 15.8431 100.991 15.7195 100.391 15.4724C99.7962 15.2208 99.2902 14.8766 98.8723 14.4397C98.4595 13.9984 98.1414 13.4776 97.9187 12.8775C97.6966 12.2729 97.5852 11.6176 97.5852 10.9115C97.5852 10.1921 97.7054 9.53236 97.9463 8.93218C98.1866 8.32759 98.5251 7.8069 98.9611 7.36999C99.3966 6.93309 99.9191 6.59331 100.527 6.35054C101.136 6.10784 101.805 5.98651 102.536 5.98651C102.909 5.98651 103.258 6.01958 103.585 6.08579C103.917 6.14758 104.225 6.23583 104.511 6.35054C104.798 6.4609 105.061 6.59551 105.301 6.75438C105.542 6.91324 105.756 7.08534 105.942 7.27071L105.165 8.28349C105.116 8.34528 105.057 8.40261 104.988 8.45559C104.92 8.50415 104.825 8.5284 104.702 8.5284C104.621 8.5284 104.543 8.51076 104.471 8.47543C104.398 8.44015 104.321 8.3982 104.239 8.34969C104.158 8.29672 104.067 8.24154 103.967 8.18421C103.871 8.12242 103.756 8.06724 103.62 8.01868C103.488 7.96576 103.331 7.92161 103.149 7.88633C102.972 7.851 102.763 7.83335 102.523 7.83335C102.142 7.83335 101.792 7.90176 101.474 8.03858C101.16 8.17534 100.888 8.37615 100.657 8.64096C100.43 8.90131 100.253 9.22345 100.125 9.60738C100.003 9.98691 99.9417 10.4216 99.9417 10.9115C99.9417 11.4057 100.01 11.8448 100.146 12.2288C100.287 12.6127 100.475 12.937 100.711 13.2018C100.952 13.4622 101.231 13.6608 101.549 13.7976C101.867 13.9344 102.207 14.0028 102.571 14.0028C102.779 14.0028 102.97 13.994 103.143 13.9763C103.315 13.9543 103.476 13.9212 103.626 13.8771C103.776 13.8285 103.917 13.7667 104.048 13.6917C104.18 13.6122 104.314 13.513 104.45 13.3938C104.505 13.3497 104.564 13.3144 104.627 13.2879C104.691 13.257 104.757 13.2415 104.825 13.2415Z" fill="#358C65"/>
<path d="M108.942 9.47505C109.196 9.26322 109.471 9.09332 109.766 8.96533C110.065 8.83292 110.422 8.76672 110.835 8.76672C111.221 8.76672 111.562 8.83292 111.856 8.96533C112.156 9.09332 112.408 9.27424 112.613 9.50813C112.817 9.73761 112.971 10.0134 113.076 10.3356C113.18 10.6533 113.232 10.9998 113.232 11.3749V15.7371H111.121V11.3749C111.121 11.0394 111.042 10.7791 110.883 10.5937C110.724 10.404 110.49 10.3091 110.181 10.3091C109.95 10.3091 109.732 10.3576 109.527 10.4548C109.327 10.5474 109.132 10.6754 108.942 10.8387V15.7371H106.83V5.82767H108.942V9.47505Z" fill="#358C65"/>
<path d="M118.991 11.4807C118.991 11.3175 118.968 11.1586 118.923 11.0041C118.882 10.8497 118.812 10.7129 118.712 10.5937C118.616 10.4702 118.489 10.3708 118.331 10.2958C118.171 10.2208 117.978 10.1833 117.751 10.1833C117.352 10.1833 117.039 10.2958 116.811 10.5209C116.584 10.7415 116.435 11.0615 116.362 11.4807H118.991ZM116.335 12.6723C116.403 13.2459 116.582 13.663 116.873 13.9233C117.164 14.1793 117.538 14.3073 117.997 14.3073C118.242 14.3073 118.453 14.2786 118.63 14.2212C118.807 14.1639 118.964 14.0999 119.1 14.0293C119.241 13.9587 119.368 13.8947 119.482 13.8373C119.6 13.7799 119.722 13.7513 119.849 13.7513C120.017 13.7513 120.144 13.8108 120.231 13.93L120.844 14.6648C120.625 14.9075 120.389 15.1061 120.135 15.2605C119.886 15.4106 119.627 15.5297 119.359 15.618C119.095 15.7018 118.83 15.7592 118.562 15.7901C118.299 15.8254 118.047 15.8431 117.806 15.8431C117.311 15.8431 116.846 15.7658 116.41 15.6114C115.979 15.4525 115.599 15.2186 115.272 14.9097C114.95 14.6008 114.694 14.2168 114.503 13.7579C114.317 13.2989 114.223 12.7649 114.223 12.1559C114.223 11.697 114.303 11.2623 114.462 10.8519C114.625 10.4414 114.857 10.0818 115.157 9.77291C115.461 9.46395 115.826 9.21903 116.253 9.03812C116.685 8.85715 117.17 8.76669 117.71 8.76669C118.178 8.76669 118.605 8.83731 118.991 8.97853C119.381 9.11976 119.715 9.32498 119.992 9.59414C120.274 9.86337 120.491 10.1943 120.646 10.5871C120.805 10.9754 120.884 11.4167 120.884 11.911C120.884 12.0655 120.877 12.1912 120.864 12.2883C120.85 12.3854 120.825 12.4626 120.789 12.52C120.753 12.5774 120.703 12.6171 120.639 12.6391C120.58 12.6612 120.503 12.6723 120.408 12.6723H116.335Z" fill="#358C65"/>
<path d="M126.429 10.3753C126.375 10.4591 126.316 10.5187 126.252 10.554C126.193 10.5893 126.116 10.607 126.021 10.607C125.921 10.607 125.821 10.5871 125.721 10.5474C125.621 10.5032 125.513 10.4569 125.394 10.4084C125.281 10.3598 125.152 10.3157 125.006 10.276C124.861 10.2319 124.695 10.2098 124.509 10.2098C124.241 10.2098 124.035 10.2605 123.889 10.362C123.749 10.4591 123.678 10.5959 123.678 10.7725C123.678 10.9004 123.723 11.0063 123.814 11.0902C123.91 11.174 124.034 11.2491 124.189 11.3153C124.344 11.377 124.518 11.4366 124.713 11.494C124.909 11.5513 125.109 11.6153 125.313 11.686C125.517 11.7566 125.717 11.8404 125.912 11.9375C126.108 12.0301 126.282 12.1471 126.437 12.2883C126.591 12.4252 126.713 12.5928 126.804 12.7914C126.9 12.99 126.947 13.2283 126.947 13.5063C126.947 13.8461 126.884 14.1594 126.756 14.4463C126.63 14.7332 126.439 14.9803 126.185 15.1877C125.935 15.3951 125.624 15.5562 125.251 15.6709C124.884 15.7857 124.459 15.8431 123.978 15.8431C123.737 15.8431 123.496 15.821 123.256 15.7769C123.015 15.7327 122.781 15.6731 122.554 15.5981C122.332 15.5231 122.125 15.4348 121.935 15.3333C121.744 15.2274 121.581 15.1149 121.444 14.9957L121.935 14.2411C121.989 14.1528 122.057 14.0844 122.139 14.0359C122.225 13.9829 122.334 13.9565 122.466 13.9565C122.588 13.9565 122.698 13.9829 122.793 14.0359C122.893 14.0888 123 14.1462 123.113 14.208C123.226 14.2698 123.358 14.3272 123.508 14.3801C123.662 14.4331 123.855 14.4595 124.087 14.4595C124.25 14.4595 124.389 14.4441 124.502 14.4132C124.616 14.3779 124.707 14.3316 124.775 14.2742C124.843 14.2168 124.893 14.1528 124.925 14.0822C124.957 14.0116 124.972 13.9388 124.972 13.8638C124.972 13.727 124.925 13.6144 124.829 13.5262C124.734 13.4379 124.609 13.3629 124.454 13.3011C124.3 13.2349 124.123 13.1753 123.924 13.1224C123.728 13.065 123.528 13.001 123.324 12.9304C123.12 12.8598 122.918 12.776 122.718 12.6789C122.523 12.5774 122.348 12.4516 122.193 12.3016C122.039 12.1471 121.914 11.9595 121.819 11.7389C121.724 11.5183 121.676 11.2513 121.676 10.9379C121.676 10.6467 121.732 10.3708 121.846 10.1105C121.964 9.84567 122.139 9.61399 122.371 9.41544C122.602 9.21683 122.893 9.06017 123.242 8.94546C123.592 8.82628 124.001 8.76669 124.468 8.76669C124.722 8.76669 124.968 8.7888 125.203 8.83289C125.444 8.87705 125.669 8.93884 125.878 9.01827C126.087 9.09771 126.277 9.19257 126.45 9.30287C126.622 9.40882 126.774 9.52574 126.906 9.65373L126.429 10.3753Z" fill="#358C65"/>
<path d="M132.494 10.3753C132.44 10.4591 132.381 10.5187 132.317 10.554C132.258 10.5893 132.181 10.607 132.086 10.607C131.986 10.607 131.886 10.5871 131.786 10.5474C131.686 10.5032 131.577 10.4569 131.459 10.4084C131.346 10.3598 131.217 10.3157 131.071 10.276C130.926 10.2319 130.76 10.2098 130.574 10.2098C130.306 10.2098 130.099 10.2605 129.954 10.362C129.813 10.4591 129.743 10.5959 129.743 10.7725C129.743 10.9004 129.788 11.0063 129.879 11.0902C129.975 11.174 130.099 11.2491 130.254 11.3153C130.408 11.377 130.583 11.4366 130.778 11.494C130.974 11.5513 131.173 11.6153 131.378 11.686C131.582 11.7566 131.782 11.8404 131.977 11.9375C132.172 12.0301 132.347 12.1471 132.502 12.2883C132.656 12.4252 132.778 12.5928 132.869 12.7914C132.965 12.99 133.012 13.2283 133.012 13.5063C133.012 13.8461 132.949 14.1594 132.821 14.4463C132.694 14.7332 132.504 14.9803 132.249 15.1877C131.999 15.3951 131.688 15.5562 131.316 15.6709C130.949 15.7857 130.524 15.8431 130.042 15.8431C129.802 15.8431 129.561 15.821 129.321 15.7769C129.08 15.7327 128.846 15.6731 128.619 15.5981C128.397 15.5231 128.19 15.4348 128 15.3333C127.809 15.2274 127.645 15.1149 127.509 14.9957L128 14.2411C128.054 14.1528 128.122 14.0844 128.204 14.0359C128.29 13.9829 128.399 13.9565 128.531 13.9565C128.653 13.9565 128.763 13.9829 128.858 14.0359C128.958 14.0888 129.064 14.1462 129.178 14.208C129.291 14.2698 129.423 14.3272 129.573 14.3801C129.727 14.4331 129.92 14.4595 130.152 14.4595C130.315 14.4595 130.454 14.4441 130.567 14.4132C130.681 14.3779 130.771 14.3316 130.84 14.2742C130.908 14.2168 130.958 14.1528 130.99 14.0822C131.021 14.0116 131.037 13.9388 131.037 13.8638C131.037 13.727 130.99 13.6144 130.894 13.5262C130.799 13.4379 130.674 13.3629 130.519 13.3011C130.365 13.2349 130.188 13.1753 129.988 13.1224C129.793 13.065 129.593 13.001 129.389 12.9304C129.185 12.8598 128.982 12.776 128.783 12.6789C128.587 12.5774 128.412 12.4516 128.258 12.3016C128.104 12.1471 127.979 11.9595 127.884 11.7389C127.789 11.5183 127.741 11.2513 127.741 10.9379C127.741 10.6467 127.797 10.3708 127.911 10.1105C128.029 9.84567 128.204 9.61399 128.436 9.41544C128.667 9.21683 128.958 9.06017 129.307 8.94546C129.657 8.82628 130.066 8.76669 130.533 8.76669C130.787 8.76669 131.032 8.7888 131.268 8.83289C131.509 8.87705 131.734 8.93884 131.943 9.01827C132.151 9.09771 132.342 9.19257 132.515 9.30287C132.687 9.40882 132.839 9.52574 132.971 9.65373L132.494 10.3753Z" fill="#358C65"/>
<path d="M136.232 8.87265V15.7371H134.121V8.87265H136.232ZM136.45 6.99267C136.45 7.15595 136.416 7.3104 136.348 7.45604C136.279 7.59726 136.186 7.72305 136.068 7.83335C135.95 7.93925 135.812 8.02535 135.653 8.0915C135.498 8.15329 135.333 8.18421 135.156 8.18421C134.984 8.18421 134.822 8.15329 134.672 8.0915C134.522 8.02535 134.389 7.93925 134.27 7.83335C134.157 7.72305 134.066 7.59726 133.998 7.45604C133.935 7.3104 133.903 7.15595 133.903 6.99267C133.903 6.82499 133.935 6.66833 133.998 6.52269C134.066 6.37706 134.157 6.24906 134.27 6.13876C134.389 6.0284 134.522 5.94236 134.672 5.88056C134.822 5.81877 134.984 5.7879 135.156 5.7879C135.333 5.7879 135.498 5.81877 135.653 5.88056C135.812 5.94236 135.95 6.0284 136.068 6.13876C136.186 6.24906 136.279 6.37706 136.348 6.52269C136.416 6.66833 136.45 6.82499 136.45 6.99267Z" fill="#358C65"/>
<path d="M138.241 15.7371V10.2826L137.778 10.1899C137.619 10.1546 137.49 10.0995 137.39 10.0244C137.295 9.94942 137.247 9.83906 137.247 9.69348V8.88587H138.241V8.49532C138.241 8.10257 138.305 7.7473 138.432 7.42957C138.564 7.11179 138.75 6.84042 138.99 6.61535C139.236 6.39028 139.533 6.21598 139.883 6.0924C140.232 5.96881 140.63 5.90707 141.075 5.90707C141.247 5.90707 141.406 5.9181 141.551 5.94015C141.697 5.95779 141.849 5.98871 142.008 6.03281L141.967 7.03236C141.962 7.10297 141.944 7.16256 141.912 7.21112C141.88 7.25522 141.837 7.29276 141.783 7.32363C141.733 7.35014 141.679 7.36999 141.62 7.38322C141.56 7.39644 141.501 7.40306 141.442 7.40306C141.256 7.40306 141.091 7.42075 140.945 7.45603C140.8 7.49131 140.677 7.55531 140.577 7.64803C140.482 7.73628 140.409 7.8554 140.36 8.00544C140.309 8.15108 140.285 8.33646 140.285 8.56153V8.88587H141.939V10.2892H140.352V15.7371H138.241Z" fill="#358C65"/>
<path d="M149.4 8.87265L145.627 17.5178C145.564 17.6546 145.486 17.7539 145.395 17.8157C145.304 17.8819 145.16 17.915 144.959 17.915H143.38L144.742 15.1347L141.922 8.87265H143.788C143.952 8.87265 144.076 8.90793 144.163 8.97854C144.254 9.04915 144.319 9.133 144.36 9.23007L145.518 12.189C145.627 12.4582 145.716 12.7341 145.783 13.0165C145.834 12.8752 145.884 12.7341 145.933 12.5929C145.984 12.4516 146.036 12.3126 146.09 12.1758L147.139 9.23007C147.18 9.12859 147.253 9.04474 147.357 8.97854C147.461 8.90793 147.575 8.87265 147.697 8.87265H149.4Z" fill="#358C65"/>
<path d="M0.948 6.432H3.816C4.448 6.432 4.968 6.5 5.376 6.636C5.792 6.772 6.116 6.956 6.348 7.188C6.588 7.42 6.752 7.692 6.84 8.004C6.936 8.308 6.984 8.632 6.984 8.976C6.984 9.336 6.936 9.68 6.84 10.008C6.744 10.336 6.576 10.624 6.336 10.872C6.096 11.12 5.772 11.316 5.364 11.46C4.956 11.604 4.44 11.676 3.816 11.676H2.04V15H0.948V6.432ZM3.804 10.74C4.22 10.74 4.564 10.7 4.836 10.62C5.108 10.54 5.32 10.424 5.472 10.272C5.624 10.12 5.728 9.94 5.784 9.732C5.848 9.516 5.88 9.276 5.88 9.012C5.88 8.74 5.848 8.5 5.784 8.292C5.72 8.084 5.608 7.912 5.448 7.776C5.288 7.64 5.072 7.54 4.8 7.476C4.536 7.404 4.2 7.368 3.792 7.368H2.04V10.74H3.804ZM10.6778 15.192C10.2058 15.192 9.78584 15.116 9.41784 14.964C9.04984 14.812 8.73784 14.596 8.48184 14.316C8.22584 14.036 8.02984 13.692 7.89384 13.284C7.75784 12.876 7.68984 12.42 7.68984 11.916C7.68984 11.412 7.76184 10.956 7.90584 10.548C8.04984 10.14 8.25384 9.792 8.51784 9.504C8.78184 9.216 9.09784 8.996 9.46584 8.844C9.84184 8.684 10.2578 8.604 10.7138 8.604C11.1778 8.604 11.5938 8.68 11.9618 8.832C12.3298 8.984 12.6418 9.204 12.8978 9.492C13.1618 9.772 13.3618 10.112 13.4978 10.512C13.6338 10.912 13.7018 11.364 13.7018 11.868C13.7018 12.38 13.6298 12.84 13.4858 13.248C13.3498 13.656 13.1498 14.004 12.8858 14.292C12.6298 14.58 12.3138 14.804 11.9378 14.964C11.5618 15.116 11.1418 15.192 10.6778 15.192ZM10.6898 14.328C11.0258 14.328 11.3138 14.268 11.5538 14.148C11.7938 14.028 11.9898 13.86 12.1418 13.644C12.3018 13.428 12.4178 13.172 12.4898 12.876C12.5618 12.572 12.5978 12.24 12.5978 11.88C12.5978 11.528 12.5618 11.204 12.4898 10.908C12.4178 10.612 12.3018 10.36 12.1418 10.152C11.9898 9.936 11.7938 9.768 11.5538 9.648C11.3138 9.528 11.0258 9.468 10.6898 9.468C10.3538 9.468 10.0658 9.528 9.82584 9.648C9.59384 9.768 9.39784 9.936 9.23784 10.152C9.08584 10.36 8.97384 10.612 8.90184 10.908C8.82984 11.204 8.79384 11.532 8.79384 11.892C8.79384 12.252 8.82984 12.58 8.90184 12.876C8.97384 13.172 9.08584 13.428 9.23784 13.644C9.38984 13.86 9.58584 14.028 9.82584 14.148C10.0658 14.268 10.3538 14.328 10.6898 14.328ZM14.2171 8.796H15.3571L16.6051 13.74L18.0331 8.832H19.0891L20.4811 13.74L21.7171 8.796H22.8211L21.0091 15H19.9051L18.5131 10.056L17.1091 15H16.0171L14.2171 8.796ZM28.9141 13.26C28.8101 13.86 28.5421 14.332 28.1101 14.676C27.6861 15.02 27.0741 15.192 26.2741 15.192C25.3301 15.192 24.6061 14.908 24.1021 14.34C23.5981 13.764 23.3461 12.964 23.3461 11.94C23.3461 11.404 23.4181 10.928 23.5621 10.512C23.7061 10.096 23.9061 9.748 24.1621 9.468C24.4261 9.188 24.7381 8.976 25.0981 8.832C25.4581 8.68 25.8501 8.604 26.2741 8.604C26.7541 8.604 27.1661 8.68 27.5101 8.832C27.8541 8.984 28.1341 9.196 28.3501 9.468C28.5741 9.732 28.7381 10.048 28.8421 10.416C28.9541 10.784 29.0101 11.188 29.0101 11.628V12.156H24.4021C24.4021 12.468 24.4421 12.76 24.5221 13.032C24.6101 13.296 24.7301 13.528 24.8821 13.728C25.0421 13.92 25.2381 14.072 25.4701 14.184C25.7021 14.296 25.9701 14.352 26.2741 14.352C26.7941 14.352 27.1741 14.256 27.4141 14.064C27.6541 13.864 27.8181 13.596 27.9061 13.26H28.9141ZM27.9661 11.376C27.9661 11.08 27.9341 10.812 27.8701 10.572C27.8061 10.332 27.7061 10.128 27.5701 9.96C27.4341 9.784 27.2581 9.648 27.0421 9.552C26.8261 9.456 26.5661 9.408 26.2621 9.408C25.7101 9.408 25.2781 9.576 24.9661 9.912C24.6621 10.248 24.4821 10.736 24.4261 11.376H27.9661ZM30.3938 8.796H31.4258V9.756C31.6578 9.412 31.9298 9.148 32.2418 8.964C32.5538 8.78 32.8858 8.688 33.2378 8.688C33.4538 8.688 33.6378 8.704 33.7898 8.736L33.6578 9.708C33.5778 9.692 33.4978 9.68 33.4178 9.672C33.3378 9.656 33.2498 9.648 33.1538 9.648C32.9618 9.648 32.7658 9.684 32.5658 9.756C32.3658 9.82 32.1778 9.932 32.0018 10.092C31.8258 10.244 31.6858 10.42 31.5818 10.62C31.4858 10.82 31.4378 11.052 31.4378 11.316V15H30.3938V8.796ZM39.7891 13.26C39.6851 13.86 39.4171 14.332 38.9851 14.676C38.5611 15.02 37.9491 15.192 37.1491 15.192C36.2051 15.192 35.4811 14.908 34.9771 14.34C34.4731 13.764 34.2211 12.964 34.2211 11.94C34.2211 11.404 34.2931 10.928 34.4371 10.512C34.5811 10.096 34.7811 9.748 35.0371 9.468C35.3011 9.188 35.6131 8.976 35.9731 8.832C36.3331 8.68 36.7251 8.604 37.1491 8.604C37.6291 8.604 38.0411 8.68 38.3851 8.832C38.7291 8.984 39.0091 9.196 39.2251 9.468C39.4491 9.732 39.6131 10.048 39.7171 10.416C39.8291 10.784 39.8851 11.188 39.8851 11.628V12.156H35.2771C35.2771 12.468 35.3171 12.76 35.3971 13.032C35.4851 13.296 35.6051 13.528 35.7571 13.728C35.9171 13.92 36.1131 14.072 36.3451 14.184C36.5771 14.296 36.8451 14.352 37.1491 14.352C37.6691 14.352 38.0491 14.256 38.2891 14.064C38.5291 13.864 38.6931 13.596 38.7811 13.26H39.7891ZM38.8411 11.376C38.8411 11.08 38.8091 10.812 38.7451 10.572C38.6811 10.332 38.5811 10.128 38.4451 9.96C38.3091 9.784 38.1331 9.648 37.9171 9.552C37.7011 9.456 37.4411 9.408 37.1371 9.408C36.5851 9.408 36.1531 9.576 35.8411 9.912C35.5371 10.248 35.3571 10.736 35.3011 11.376H38.8411ZM45.7808 14.112C45.5248 14.456 45.2288 14.724 44.8928 14.916C44.5568 15.1 44.1608 15.192 43.7048 15.192C43.2488 15.192 42.8528 15.108 42.5168 14.94C42.1888 14.772 41.9168 14.544 41.7008 14.256C41.4848 13.96 41.3248 13.612 41.2208 13.212C41.1168 12.812 41.0648 12.384 41.0648 11.928C41.0648 11.416 41.1288 10.956 41.2568 10.548C41.3848 10.132 41.5648 9.78 41.7968 9.492C42.0368 9.204 42.3248 8.984 42.6608 8.832C43.0048 8.68 43.3928 8.604 43.8248 8.604C44.1528 8.604 44.4848 8.672 44.8208 8.808C45.1568 8.936 45.4688 9.184 45.7568 9.552V6.432H46.8008V15H45.7808V14.112ZM45.7928 11.712C45.7928 11.216 45.7368 10.832 45.6248 10.56C45.5208 10.28 45.3448 10.044 45.0968 9.852C44.9208 9.708 44.7408 9.608 44.5568 9.552C44.3808 9.496 44.1848 9.468 43.9688 9.468C43.7128 9.468 43.4728 9.512 43.2488 9.6C43.0328 9.688 42.8408 9.832 42.6728 10.032C42.5128 10.224 42.3848 10.476 42.2888 10.788C42.2008 11.092 42.1568 11.464 42.1568 11.904C42.1568 12.36 42.2048 12.744 42.3008 13.056C42.4048 13.368 42.5368 13.616 42.6968 13.8C42.8648 13.984 43.0488 14.116 43.2488 14.196C43.4568 14.276 43.6688 14.316 43.8848 14.316C44.1168 14.316 44.3248 14.288 44.5088 14.232C44.6928 14.176 44.8768 14.08 45.0608 13.944C45.3008 13.752 45.4808 13.512 45.6008 13.224C45.7288 12.936 45.7928 12.572 45.7928 12.132V11.712ZM51.0892 6.432H52.1332V9.66C52.3892 9.324 52.6852 9.064 53.0212 8.88C53.3572 8.696 53.7532 8.604 54.2092 8.604C54.6492 8.604 55.0332 8.684 55.3612 8.844C55.6972 9.004 55.9732 9.228 56.1892 9.516C56.4132 9.804 56.5772 10.148 56.6812 10.548C56.7932 10.94 56.8492 11.376 56.8492 11.856C56.8492 12.368 56.7852 12.832 56.6572 13.248C56.5292 13.656 56.3452 14.004 56.1052 14.292C55.8652 14.58 55.5732 14.804 55.2292 14.964C54.8932 15.116 54.5132 15.192 54.0892 15.192C53.7292 15.192 53.3772 15.12 53.0332 14.976C52.6972 14.824 52.3932 14.568 52.1212 14.208V15H51.0892V6.432ZM52.1212 12.072C52.1212 12.472 52.1652 12.816 52.2532 13.104C52.3492 13.384 52.4772 13.616 52.6372 13.8C52.7972 13.984 52.9892 14.12 53.2132 14.208C53.4372 14.288 53.6812 14.328 53.9452 14.328C54.2012 14.328 54.4372 14.284 54.6532 14.196C54.8772 14.108 55.0692 13.968 55.2292 13.776C55.3892 13.576 55.5132 13.32 55.6012 13.008C55.6972 12.696 55.7452 12.316 55.7452 11.868C55.7452 11.412 55.6932 11.032 55.5892 10.728C55.4932 10.416 55.3652 10.168 55.2052 9.984C55.0452 9.8 54.8612 9.668 54.6532 9.588C54.4532 9.508 54.2452 9.468 54.0292 9.468C53.7572 9.468 53.5052 9.516 53.2732 9.612C53.0412 9.7 52.8372 9.836 52.6612 10.02C52.4932 10.196 52.3612 10.424 52.2652 10.704C52.1692 10.976 52.1212 11.292 52.1212 11.652V12.072ZM57.9909 16.32C58.2149 16.4 58.4389 16.44 58.6629 16.44C58.9189 16.44 59.1149 16.372 59.2509 16.236C59.3949 16.108 59.5349 15.864 59.6709 15.504L59.9229 14.844L57.2949 8.796H58.5069L60.4629 13.668L62.2509 8.796H63.4029L60.6909 15.588C60.5789 15.868 60.4669 16.112 60.3549 16.32C60.2429 16.536 60.1189 16.72 59.9829 16.872C59.8469 17.024 59.6829 17.136 59.4909 17.208C59.3069 17.288 59.0789 17.328 58.8069 17.328C58.6149 17.328 58.4429 17.316 58.2909 17.292C58.1389 17.268 57.9709 17.224 57.7869 17.16L57.9909 16.32Z" fill="#8E8E8E"/>
</svg>
