<svg xmlns="http://www.w3.org/2000/svg" viewBox="0 0 139 115.4"><style>.st0{fill-rule:evenodd;clip-rule:evenodd}.st0,.st1{fill:#fff}</style><g id="logo2_deep_sky_blue"><path class="st0" d="M69.3 0C53.9 0 39.5 3.2 26.6 10.1c7.5 3.7 17.6 6.8 26.3 8.6.3-.3.6-.6.9-1-.2-.8-.5-2-.6-2.7 1.8-1.2 7.3-3.5 7.3-3.5l-.7-6.8 2.9-1 2.8 6.7c19-1.6 21 6.7 22.1 9.2 9.4-1.4 19-4.4 26.3-8.4C103.5 5.1 87.7 0 69.3 0zM8.9 24.4c5 1.6 15.1 4.5 32.2 7.1 1.5-2.2 8.3-8.9 10-10.9-13.4-2.6-23.8-7.1-27.5-8.8-5 3-10.6 7.5-14.7 12.6zm79.7 9c20.1-1.1 36.4-5.2 42.6-7.4-3.8-5.2-9.8-10.2-14.6-13.2-3.5 1.9-12.9 6.3-28.3 8.7 1.5 3.7.3 11.9.3 11.9zM0 46.9h51.6c3.7-6.4 12-10.5 12-10.5s-5.5-.3-8.8-.5c-2.5 2-7.8 7.2-13.3-1.7-11.6-1.4-25.7-4.6-34.4-7.5C1.8 34.1.2 41.2 0 46.9zm139 0c-.1-5.8-2.1-12.2-5.8-17.9-3.8 1.1-19.3 5.9-45.1 7.3-.6 3.6-1.9 7.6-2.1 10.7 2.2-.1 48.9-.1 53-.1zM0 49.6h50c-1.1 2.1-2 6.9-1.8 9.4-27.1 2.4-38.9 6.7-42.7 7.9C2.7 62.3.3 56.7 0 49.6zm85.6 0h53.3c-.4 7.9-3.5 14.1-6.1 18-3.2-.9-19.5-6.2-44.5-8.5-1.1-1.5-3.1-5.2-2.7-9.5zM7 69.2c2.7-1 17.9-6 41.4-7.7.2 2.6 1 5.5 1 5.5h39.5c2-2.2.9-5.1.9-5.1 18.9 1.5 37.9 6.9 41.3 8.1-3.7 5-9.7 10.3-16 14-5.2-2-19-8.2-37.3-9.7 2-2.8 9.3-3.5 11.1-3.7v-2.7H49.3v2.7s8.5.1 10.5 3.5C37.1 76 25.3 83.4 23.9 84.3 17.4 80.5 11.2 75.2 7 69.2z"/><path class="st0" d="M112 85.8c-5.9 3.2-13.7 6.1-20.8 7.7V82.2c-2.5 0-3.3.1-4.9.1-3.5 0-5.6-.3-7.3-1.6-1.9-1.3-2-3.4-1.8-4.3C97 78.2 112 85.8 112 85.8zM46.5 93.3c-7.5-1.8-14.4-4.5-20-7.5 6-4.1 18.1-8.6 34.5-9.7.2.6.4 3.4-1.8 4.8-2.9 1.9-12.8 1.3-12.8 1.3v11.1z"/><path class="st1" d="M51.3 85.4h7.3v2.2H54v2.7h4.3v2.2H54v4.8h-2.7V85.4zM63.4 85.4v12h-2.7v-12h2.7zM65.8 85.6c1-.2 2.3-.3 3.7-.3 2.3 0 3.8.4 4.9 1.3 1.2.9 2 2.4 2 4.5 0 2.3-.8 3.9-2 4.9-1.3 1.1-3.2 1.6-5.6 1.6-1.4 0-2.4-.1-3.1-.2V85.6zm2.7 9.8c.2.1.6.1.9.1 2.5 0 4.1-1.3 4.1-4.2 0-2.5-1.5-3.8-3.8-3.8-.6 0-1 .1-1.2.1v7.8zM85.3 92.3h-4.4v2.9h4.9v2.2h-7.7v-12h7.4v2.2h-4.7v2.5h4.4v2.2z"/><g><path class="st1" d="M17 114.8c-.7.2-2.1.6-3.4.6-1.9 0-3.2-.5-4.2-1.3-.9-.9-1.4-2.2-1.4-3.7 0-3.4 2.5-5.3 5.8-5.3 1.3 0 2.3.3 2.8.5l-.5 1.8c-.6-.3-1.2-.4-2.4-.4-1.9 0-3.4 1.1-3.4 3.3 0 2.1 1.3 3.3 3.2 3.3.5 0 .9-.1 1.1-.1v-2.1H13v-1.8h4v5.2zM24.9 111h-3.8v2.4h4.2v1.9h-6.5v-10.1h6.3v1.9h-4v2.1h3.8v1.8zM26.9 115.3v-10.1h2.7l2.1 3.7c.6 1.1 1.2 2.3 1.7 3.5-.1-1.3-.2-2.7-.2-4.2v-2.9h2.1v10.1h-2.4l-2.2-3.9c-.6-1.1-1.3-2.4-1.8-3.6h-.1c.1 1.3.1 2.8.1 4.4v3h-2zM37.5 112.9c.6.3 1.6.6 2.6.6 1.1 0 1.6-.4 1.6-1.1 0-.6-.5-1-1.7-1.4-1.7-.6-2.8-1.5-2.8-3 0-1.7 1.5-3 3.9-3 1.2 0 2 .2 2.6.5l-.5 1.8c-.4-.2-1.1-.5-2.1-.5s-1.5.5-1.5 1c0 .6.6.9 1.9 1.4 1.8.7 2.6 1.6 2.6 3 0 1.7-1.3 3.1-4.1 3.1-1.2 0-2.3-.3-2.9-.6l.4-1.8zM50.9 105.2v5.8c0 1.8.7 2.6 1.9 2.6s1.9-.8 1.9-2.6v-5.8H57v5.7c0 3.1-1.6 4.6-4.3 4.6-2.6 0-4.1-1.4-4.1-4.6v-5.6h2.3zM59 115.3v-10.1h2.7l2.1 3.7c.6 1.1 1.2 2.3 1.7 3.5-.1-1.3-.2-2.7-.2-4.2v-2.9h2.1v10.1H65l-2.2-3.9c-.6-1.1-1.3-2.4-1.8-3.6.1 1.3.1 2.8.1 4.4v3H59zM71.8 112.7l-.7 2.6h-2.4l3.1-10.1h3l3.2 10.1h-2.5l-.8-2.6h-2.9zm2.6-1.7l-.6-2.1c-.2-.6-.4-1.3-.5-1.9-.2.6-.3 1.4-.5 1.9l-.6 2.1h2.2zM82.5 112.9c.6.3 1.6.6 2.6.6 1.1 0 1.6-.4 1.6-1.1 0-.6-.5-1-1.7-1.4-1.7-.6-2.8-1.5-2.8-3 0-1.7 1.5-3 3.9-3 1.2 0 2 .2 2.6.5l-.5 1.8c-.4-.2-1.1-.5-2.1-.5s-1.5.5-1.5 1c0 .6.6.9 1.9 1.4 1.8.7 2.6 1.6 2.6 3 0 1.7-1.3 3.1-4.1 3.1-1.2 0-2.3-.3-2.9-.6l.4-1.8zM93 105.2v5.8c0 1.8.7 2.6 1.9 2.6s1.9-.8 1.9-2.6v-5.8H99v5.7c0 3.1-1.6 4.6-4.3 4.6-2.6 0-4.1-1.4-4.1-4.6v-5.6H93zM109.7 111.4c0-1.2-.1-2.7-.1-4.2-.3 1.3-.8 2.7-1.2 3.9l-1.2 3.9h-1.8l-1.1-3.9c-.3-1.2-.7-2.6-.9-4 0 1.4-.1 2.9-.2 4.2l-.2 3.8h-2.1l.7-10.1h3.1l1 3.4.9 3.6h.1c.3-1.2.6-2.5 1-3.6l1.1-3.4h3l.5 10.1h-2.2l-.4-3.7zM116.2 105.2v5.8c0 1.8.7 2.6 1.8 2.6 1.2 0 1.9-.8 1.9-2.6v-5.8h2.3v5.7c0 3.1-1.6 4.6-4.3 4.6-2.6 0-4.1-1.4-4.1-4.6v-5.6h2.4zM124.3 112.9c.6.3 1.6.6 2.6.6 1.1 0 1.6-.4 1.6-1.1 0-.6-.5-1-1.7-1.4-1.7-.6-2.8-1.5-2.8-3 0-1.7 1.5-3 3.9-3 1.2 0 2 .2 2.6.5l-.5 1.8c-.4-.2-1.1-.5-2.1-.5s-1.5.5-1.5 1c0 .6.6.9 1.9 1.4 1.8.7 2.6 1.6 2.6 3 0 1.7-1.3 3.1-4.1 3.1-1.2 0-2.3-.3-2.9-.6l.4-1.8z"/></g></g></svg>