<svg xmlns="http://www.w3.org/2000/svg" viewBox="0 0 24 24">
    <g fill-rule="evenodd">
        <g fill-rule="nonzero">
            <g>
                <path d="M1.934 10.015c.77 0 1.466-.462 1.764-1.173 1.23-2.931 4.123-4.997 7.496-4.997 1.859 0 3.563.637 4.93 1.694l-1.071.165c-.366.057-.65.347-.7.714-.05.367.148.722.485.874l5.89 2.65c.257.115.556.093.794-.06s.382-.416.384-.699l.03-6.489c.002-.369-.238-.695-.591-.803-.354-.107-.735.03-.94.336l-.811 1.22C17.429 1.317 14.464 0 11.194 0 6.236 0 1.974 3.028.156 7.33c-.253.597-.19 1.28.168 1.82s.962.865 1.61.865zM22.064 14.812c-.358-.54-.962-.865-1.61-.865-.77 0-1.466.463-1.764 1.173-1.23 2.932-4.123 4.997-7.496 4.997-1.859 0-3.563-.637-4.93-1.693l1.072-.166c.365-.057.65-.347.7-.714.05-.366-.148-.722-.486-.874l-5.889-2.65c-.258-.115-.557-.093-.795.06-.237.153-.382.416-.383.699l-.03 6.489c-.003.369.238.695.59.803.354.108.736-.03.94-.336l.812-1.22c2.164 2.13 5.13 3.447 8.4 3.447 4.957 0 9.22-3.027 11.037-7.33.253-.597.19-1.28-.168-1.82z" transform="translate(-492 -871) translate(61 855) translate(431 16) translate(1)"/>
            </g>
        </g>
    </g>
</svg>
