<svg xmlns="http://www.w3.org/2000/svg" viewBox="0 0 33.6 35.06"><defs><style>.cls-1{fill:#1a1a1a;stroke:#fff;stroke-miterlimit:10;stroke-width:0.5px;}</style></defs><g id="Capa_2" data-name="Capa 2"><g id="Capa_1-2" data-name="Capa 1"><path class="cls-1" d="M12.26,4a11.82,11.82,0,0,1,2-3.32c.53-.55.92-.64,1.39.05A9.28,9.28,0,0,1,17,3.19a1.19,1.19,0,0,0,1,.93C24.2,5.49,28,9.71,30.68,15.2c2.49,5.16,3,10.65,2.54,16.27a20.53,20.53,0,0,0-.16,2.21c0,.94-.42,1.13-1.26,1.13-7,0-14,0-21,0-1.08,0-1.17-.13-1.07-1.21a12.14,12.14,0,0,1,2.47-6.07c.88-1.19,1.8-2.34,2.63-3.56A7.32,7.32,0,0,0,16.4,19.1a29.32,29.32,0,0,1-4.72,2.58,8,8,0,0,0-3.09,3.09,8.13,8.13,0,0,1-1.27,1.8,1.3,1.3,0,0,1-2.06,0A1.39,1.39,0,0,0,4,26.09,3,3,0,0,1,1,24.28a5.57,5.57,0,0,1-.38-4.84,36.41,36.41,0,0,1,2.83-5.16A5.8,5.8,0,0,0,4.37,12a6.09,6.09,0,0,1,2-4A1.94,1.94,0,0,0,7,5.87a15.37,15.37,0,0,1-.17-4.12C6.82.79,7,.69,8,.89a5.94,5.94,0,0,1,3.11,1.86C11.49,3.14,11.84,3.55,12.26,4Zm16.38,29c2.16.22,2.16.22,2.34-1.64A32.92,32.92,0,0,0,31.13,26a26.36,26.36,0,0,0-5.28-14.88,14.81,14.81,0,0,0-7.37-5.37c-.32-.1-.88-.52-1,.27-.11.56.12.78.66.91a9.36,9.36,0,0,1,4.47,2.7A19.52,19.52,0,0,1,26.72,16,29.64,29.64,0,0,1,28.64,33.05ZM10.91,9.68a.64.64,0,0,0-.6-.46,3.29,3.29,0,0,0-3.25,2.95c0,.79.49,1,1.21.54a2.52,2.52,0,0,1,.79-.34c.43-.11.9-.21,1.09-.65C10.44,11,10.13,10.15,10.91,9.68Zm6.27,6.8c.63.18,1.06.38,1.44-.19a3.75,3.75,0,0,0,0-3.63.65.65,0,0,0-.59-.37c-.42,0-.37.39-.35.66A11.18,11.18,0,0,1,17.18,16.48ZM2.88,22.12c0,.2-.07.72.45.74,1,.05.91-1,1.41-1.49a.71.71,0,0,0-.16-1.05.78.78,0,0,0-1.17.13A2.32,2.32,0,0,0,2.88,22.12ZM12.63,6.77a.42.42,0,0,0-.39-.48,4.51,4.51,0,0,0-2,1.11.66.66,0,0,0,0,.41.33.33,0,0,0,.47.2c.58-.26,1.15-.55,1.71-.84A.35.35,0,0,0,12.63,6.77ZM5.3,24.09a.66.66,0,0,0,.71.52c.61,0,.85-.46.92-1a.59.59,0,0,0-.57-.72C5.71,22.94,5.5,23.48,5.3,24.09Z"/></g></g></svg>