<svg xmlns="http://www.w3.org/2000/svg" viewBox="0 0 22.74 34.03"><defs><style>.cls-1{fill:#1a1a1a;stroke:#fff;stroke-miterlimit:10;stroke-width:0.5px;}</style></defs><g id="Capa_2" data-name="Capa 2"><g id="Capa_1-2" data-name="Capa 1"><path class="cls-1" d="M13.77,7.93c.41.54,1,.62,1.54.91a5.54,5.54,0,0,1,1,9.35c-.93.83-.93.82.12,1.5a12.23,12.23,0,0,1,6,11.68c0,.43-.15.86-.22,1.3-.12.81-.54,1.11-1.4,1.1-6.3,0-12.59,0-18.89,0-1.15,0-1.42-.21-1.59-1.59A12.22,12.22,0,0,1,4.28,21.09a11.66,11.66,0,0,1,1.9-1.38c.92-.57.93-.63.17-1.36a5.77,5.77,0,0,1-1.61-2.43A5.91,5.91,0,0,1,6.91,9.37L7.39,9c1.23-.85,1.23-.85.42-2.07a3.92,3.92,0,0,1,.31-4.9,4.3,4.3,0,0,1,5-1.5,4.34,4.34,0,0,1,2.62,4.22,3.89,3.89,0,0,1-1.48,2.62A6.17,6.17,0,0,0,13.77,7.93Z"/></g></g></svg>