<svg xmlns="http://www.w3.org/2000/svg" viewBox="0 0 35.43 37.14"><defs><style>.cls-1{fill:#1a1a1a;stroke:#fff;stroke-miterlimit:10;stroke-width:0.5px;}</style></defs><g id="Capa_2" data-name="Capa 2"><g id="Capa_1-2" data-name="Capa 1"><path class="cls-1" d="M16.46,5.53c-2-1.92-2.08-2.87-.66-4.31C17,0,18.49-.08,19.56,1.05c1.29,1.34,1,2.63-1,4.48a4.38,4.38,0,0,0,1.7,1.31,34.22,34.22,0,0,1,4.91,3.25,7.57,7.57,0,0,1,2.47,8.5,4.28,4.28,0,0,1-1.11,2.06,3.59,3.59,0,0,0-1,3.1c0,1.08,0,2.16.13,3.24a2,2,0,0,1-1.37,2.18,12.21,12.21,0,0,1-3.13.8c-.25,0-.54.08-.51.39s.19.33.34.45a2.51,2.51,0,0,0,1.69.35c2.12,0,4.23-.06,6.35-.05a9.46,9.46,0,0,1,5.41,1.66c.9.62.91.67.32,1.63-.49.8-.83,1.85-1.55,2.3s-1.61-.58-2.48-.82a24,24,0,0,0-5.95-.94,17.8,17.8,0,0,1-2.2-.15,6.93,6.93,0,0,1-4.8-2.64,6.23,6.23,0,0,1-5.48,2.73,22.24,22.24,0,0,0-9.45,1.91c-.5.24-.72,0-.94-.34L.75,34.58c-.74-1.21-.73-1.25.5-2a9.09,9.09,0,0,1,5-1.44c2.22,0,4.43,0,6.64,0,.74,0,1.48,0,1.85-.82-.13-.3-.37-.32-.62-.35s-.78-.07-1.17-.15c-3.08-.59-3.46-1-3.42-4.15,0-.34,0-.69,0-1a5,5,0,0,0-1.19-3.93c-1.79-1.9-2.36-7.06.55-9.89a29,29,0,0,1,4.91-3.5A11.94,11.94,0,0,0,16.46,5.53Zm4.92,9c.1-.71-.16-1-1-1.06-1.66-.06-1.65-.1-1.8-1.85a3.13,3.13,0,0,0,0-.44.49.49,0,0,0-.36-.4c-1-.38-1.68.06-1.71,1.13-.05,1.51-.05,1.54-1.48,1.56-.75,0-1.17.14-1.16,1.05s.42.94,1.1.95c1.49,0,1.49.06,1.54,1.63,0,.15,0,.3,0,.45,0,.52.26.64.73.68,1.18.1,1.35,0,1.38-1.22a3.87,3.87,0,0,0,0-.59c-.06-.68.22-1,.93-1,.34,0,.69,0,1,0C21.25,15.55,21.44,15.18,21.38,14.57ZM11,26.92a24.7,24.7,0,0,1,5-.84,26.12,26.12,0,0,1,6.89.53c.32.07.8.4,1-.22s-.13-.83-.62-1l-.7-.23a16.26,16.26,0,0,0-5.09-.7,16.82,16.82,0,0,0-5.78,1C11,25.7,10.73,26.07,11,26.92Zm12.77-3.24c.14-.68.28-1.21-.49-1.52a14.62,14.62,0,0,0-11.74.11c-.62.27-.77.69-.47,1.39A18.37,18.37,0,0,1,23.81,23.68Z"/></g></g></svg>