<svg xmlns="http://www.w3.org/2000/svg" viewBox="0 0 25.72 33.9"><defs><style>.cls-1{fill:#fff;}</style></defs><g id="Capa_2" data-name="Capa 2"><g id="Capa_1-2" data-name="Capa 1"><path class="cls-1" d="M12.87,33.9H1.36C0,33.89,0,33.88,0,32.62c0-.68,0-1.37,0-2.06s.13-1.14.75-1.31.6-.56.6-1c0-.1,0-.2,0-.3a5.93,5.93,0,0,1,2-5.56A2,2,0,0,0,4,20.78c0-3.29,0-6.59,0-9.88a1.44,1.44,0,0,0-.73-1.48c-.12-.07-.23-.19-.36-.26a3.57,3.57,0,0,1-2-4,6.28,6.28,0,0,0,0-1.62,1.82,1.82,0,0,1,1.36-2c.27-.11.55-.22.83-.31C5.17.53,5.2.53,5.34,2.69c0,.69.26,1,1,.88.34-.06.69,0,1-.1.72-.13,1.6.08,2.12-.39s.19-1.31.18-2,.25-1,.93-1A46.49,46.49,0,0,1,15.29,0c.57,0,.8.27.77.82v.29c.08,2.09.08,2.09,2.22,2.33l.59,0c1.47.12,1.47.12,1.51-1.32,0-.25,0-.49,0-.74,0-.48.21-.72.74-.63a9.12,9.12,0,0,1,2.92,1,1.41,1.41,0,0,1,.78,1.32,13.56,13.56,0,0,0,0,2.21,3.41,3.41,0,0,1-2.2,3.89A1.63,1.63,0,0,0,21.71,11c0,3.15,0,6.3,0,9.45a2.59,2.59,0,0,0,.8,2.1A5,5,0,0,1,24.16,27c-.11.92-.33,2,1.07,2.34.38.1.44.64.45,1,0,.89,0,1.77,0,2.66,0,.62-.27.86-.89.85-1.38,0-2.76,0-4.13,0Zm0-2.37H22c.59,0,1.18,0,1.77,0s.77-.13.76-.65-.36-.64-.8-.63H2.77a7.58,7.58,0,0,0-1.17.06c-.35.07-.41.38-.38.69s.12.49.42.51.69,0,1,0ZM13,26c2.81,0,5.62,0,8.42,0,.5,0,1.52,0,1.47-.57,0-1-.89-.66-1.47-.74H4.71l-1,0c-.43,0-.6.25-.6.67s.15.65.59.65H13ZM23.37,6.61c-.08-.35-.39-.41-.66-.52a13.88,13.88,0,0,0-3.61-.63A50.09,50.09,0,0,0,3,6.17c-.31.06-.79,0-.68.53a.77.77,0,0,0,.76.57,2.62,2.62,0,0,0,.72-.14,47.17,47.17,0,0,1,18.15,0,2.67,2.67,0,0,0,.72.13A.89.89,0,0,0,23.37,6.61Zm-10.48,2c-2.3.13-4.55.2-6.78.55l-.3,0a.66.66,0,0,0-.66.78c0,.61.45.53.85.47a50.63,50.63,0,0,1,9.53-.39c1.42.08,2.83.26,4.25.41.35,0,.71.11.78-.39s0-.78-.55-.86l-.43-.07C17.34,8.82,15.09,8.76,12.89,8.63ZM4.63,23.12c2.39.34,15.75.21,16.64-.14a1.2,1.2,0,0,0-1.32-.9c-4.66,0-9.32,0-14,0A1.23,1.23,0,0,0,4.63,23.12Z"/></g></g></svg>