<svg xmlns="http://www.w3.org/2000/svg" viewBox="0 0 34.86 34.24"><defs><style>.cls-1{fill:#fff;}</style></defs><g id="Capa_2" data-name="Capa 2"><g id="Capa_1-2" data-name="Capa 1"><path class="cls-1" d="M8.8,7.22a1.74,1.74,0,0,0-.89-1.83,1.64,1.64,0,0,1-.75-2A2.25,2.25,0,0,1,9.06,1.7a2.1,2.1,0,0,1,2,1.21,1.67,1.67,0,0,1-.32,2,1.16,1.16,0,0,0-.32,1.3A100,100,0,0,0,13.81,16c.06.14.11.28.18.41s.19.34.43.34.4-.26.43-.5c.13-1.07.22-2.15.37-3.22.37-2.53.75-5,1.14-7.58a2,2,0,0,0-.49-2,1.88,1.88,0,0,1,.3-2.95,2,2,0,0,1,2.95.44A1.58,1.58,0,0,1,19,3.2C18,4,18.18,5,18.34,6c.39,2.38.78,4.75,1.15,7.13.13.88.18,1.76.32,2.64.05.35-.08.89.42,1s.57-.42.72-.76c.26-.58.51-1.17.74-1.77q1.47-3.78,2.57-7.68A1.74,1.74,0,0,0,24,4.9a2,2,0,0,1,1-3,2,2,0,0,1,2.72,1.26,1.79,1.79,0,0,1-.86,2.26c-.85.42-.92,1-.93,1.76,0,3.2-.12,6.39-.16,9.59,0,.45-.24,1.12.36,1.28s.61-.53.83-.88c1.48-2.38,2.71-4.9,4-7.4a1.22,1.22,0,0,0,0-1.48c-.78-1,0-2.36.94-2.84a2,2,0,0,1,2.66.84A1.77,1.77,0,0,1,33.69,9a2.32,2.32,0,0,0-1.59,2.16c-.63,3.63-1.31,7.26-1.91,10.89a6.9,6.9,0,0,1-1.67,3.7,3.24,3.24,0,0,0-.88,2.7c.08.73.08,1.47.1,2.21,0,1.48-.21,1.84-1.61,2.44a13.81,13.81,0,0,1-4.3.94,37,37,0,0,1-11.31-.42,9.57,9.57,0,0,1-2.63-.92,1.77,1.77,0,0,1-1-1.93c.05-.34,0-.69.09-1a5,5,0,0,0-1.26-4.62,4.74,4.74,0,0,1-1-2.72C4,18.59,3.43,14.8,2.56,11.06c-.21-.9-.39-1.71-1.5-2.12A1.68,1.68,0,0,1,.25,6.48,2.22,2.22,0,0,1,3.13,5.42,1.88,1.88,0,0,1,4,8.14a1.7,1.7,0,0,0,0,2.11c1.13,2.07,2.12,4.22,3.35,6.23.26.42.52.84.79,1.25.13.2.27.45.57.31a.52.52,0,0,0,.25-.5c0-.88,0-1.77,0-2.65Zm-2,17.28c.31.76.64,1,1.4.72A25.15,25.15,0,0,1,22.54,24a18.91,18.91,0,0,1,4.09,1.17.51.51,0,0,0,.74-.22c.19-.34,0-.54-.28-.69l-.8-.38a21.91,21.91,0,0,0-10.2-1.71A22,22,0,0,0,6.83,24.5Zm1.52,6a20.78,20.78,0,0,1,3.94-1,30.44,30.44,0,0,1,13.12.72c.26.08.6.32.75-.07a.71.71,0,0,0-.22-.92,7.9,7.9,0,0,0-.93-.44,18.7,18.7,0,0,0-6.2-1.1c-3.3-.12-6.57-.05-9.7,1.25C8.37,29.2,8,29.58,8.35,30.48Zm0-2.76a26.65,26.65,0,0,1,17.63,0c.38-.72.16-1.17-.52-1.42s-1.38-.53-2.09-.71A27.47,27.47,0,0,0,13,25.19a16.26,16.26,0,0,0-4.11,1.12C8.26,26.59,8,27,8.39,27.72Z"/></g></g></svg>