<svg xmlns="http://www.w3.org/2000/svg" viewBox="0 0 22.24 33.51"><defs><style>.cls-1{fill:#fff;}</style></defs><g id="Capa_2" data-name="Capa 2"><g id="Capa_1-2" data-name="Capa 1"><path class="cls-1" d="M13.56,7.72a5.39,5.39,0,0,0,1.58.91,5.53,5.53,0,0,1,1,9.27c-1,.87-1,.86.18,1.6a12.22,12.22,0,0,1,5.92,11.58,5.69,5.69,0,0,1-.13,1c-.3,1.31-.4,1.4-1.77,1.4H2C.52,33.5.27,33.33.1,31.77a12.22,12.22,0,0,1,4-11,13.32,13.32,0,0,1,1.79-1.29c.91-.56.92-.64.17-1.37a5.57,5.57,0,0,1-1.6-2.43A5.72,5.72,0,0,1,6.23,9.5,9,9,0,0,1,7.4,8.61c1-.7,1-.7.31-1.7a4.13,4.13,0,0,1,1.14-6,4,4,0,0,1,5.93,1.06,3.68,3.68,0,0,1-.28,4.74C14.21,7,13.79,7.2,13.56,7.72Z"/></g></g></svg>