<svg xmlns="http://www.w3.org/2000/svg" viewBox="0 0 33.1 34.59"><defs><style>.cls-1{fill:#fff;}</style></defs><g id="Capa_2" data-name="Capa 2"><g id="Capa_1-2" data-name="Capa 1"><path class="cls-1" d="M12,3.78A12.29,12.29,0,0,1,13.8.68c.86-.92,1-.93,1.75.1A7.34,7.34,0,0,1,16.72,3a1.17,1.17,0,0,0,1,.91C24,5.3,27.8,9.51,30.44,15c2.48,5.16,2.93,10.66,2.53,16.27,0,.44-.09.88-.13,1.32-.15,2.07.28,2-2.21,2H11.15c-1.79,0-1.8-.05-1.54-1.86A12.28,12.28,0,0,1,12,27.26c.78-1.07,1.6-2.12,2.38-3.2a9.18,9.18,0,0,0,1.68-3.57,2.59,2.59,0,0,0,0-1.55,18.69,18.69,0,0,1-4,2.22,8.26,8.26,0,0,0-3.62,3.35,8.23,8.23,0,0,1-1.28,1.81A1.3,1.3,0,0,1,5,26.37a1.58,1.58,0,0,0-1.43-.5A2.89,2.89,0,0,1,.86,24.21a5.52,5.52,0,0,1-.47-4.95A29.91,29.91,0,0,1,3,14.47a7.4,7.4,0,0,0,1.2-3.13,5.47,5.47,0,0,1,1.9-3.56,2.08,2.08,0,0,0,.63-2.25,15.51,15.51,0,0,1-.14-4c0-1,.23-1.08,1.17-.89a5.92,5.92,0,0,1,3.11,1.86C11.23,2.91,11.58,3.32,12,3.78ZM31,27.55a41,41,0,0,0-.59-5.85A24,24,0,0,0,23.94,9,13.44,13.44,0,0,0,18.23,5.5c-.34-.09-.89-.48-1,.3-.11.57.18.76.69.88a9.24,9.24,0,0,1,4.47,2.73c3.4,3.52,5,7.89,6,12.58a30.33,30.33,0,0,1,.19,10c0,.31-.31.68.1.93a1.37,1.37,0,0,0,2-.93A32.49,32.49,0,0,0,31,27.55ZM6.83,11.67a1,1,0,0,0,.36,1.06c.38.27.58-.13.88-.23,1.24-.4,2.22-1,2.13-2.49,0-.06.15-.12.21-.19.42-.61.08-.78-.48-.82A3.33,3.33,0,0,0,6.83,11.67Zm12,2.54a3.47,3.47,0,0,0-.38-1.57c-.14-.31-.33-.65-.76-.54s-.29.48-.28.74a9.57,9.57,0,0,1-.34,2.77c-.06.26-.28.6.14.75s.78.23,1.06-.2A3.45,3.45,0,0,0,18.86,14.21ZM2.63,22c0,.19,0,.59.42.68a.72.72,0,0,0,.82-.45c.2-.38.47-.73.67-1.12a.77.77,0,0,0-.29-1,.79.79,0,0,0-1.06.16A2.29,2.29,0,0,0,2.63,22Zm7.72-14.1c.66-.34,1.31-.65,1.94-1,.18-.11.11-.37,0-.54a.39.39,0,0,0-.48-.22,5.49,5.49,0,0,0-1.78,1,.36.36,0,0,0-.05.52A1.35,1.35,0,0,0,10.35,7.86Zm-5.24,16c0,.21.17.41.5.45.61.09.88-.3,1-.81a.61.61,0,0,0-.45-.79C5.78,22.63,5.17,23.23,5.11,23.9Z"/></g></g></svg>