<svg xmlns="http://www.w3.org/2000/svg" viewBox="0 0 36.73 38.57"><defs><style>.cls-1{fill:#fff;}</style></defs><g id="Capa_2" data-name="Capa 2"><g id="Capa_1-2" data-name="Capa 1"><path class="cls-1" d="M22.76,12.91a9.86,9.86,0,0,1,5.57-2.3c5.73-.29,9.36,4,8.18,9.63A11.4,11.4,0,0,1,32.11,27a3.93,3.93,0,0,0-1.65,3.92c.11,1.07.05,2.16.12,3.24A2.4,2.4,0,0,1,29.3,36.5,11.38,11.38,0,0,1,25,38a37.38,37.38,0,0,1-14.22-.22,9.88,9.88,0,0,1-3.28-1.3,2.47,2.47,0,0,1-1.27-2.32c.06-1.52,0-3,.12-4.57a2,2,0,0,0-.92-1.87A16,16,0,0,1,3,25.56a10.91,10.91,0,0,1-3-7.33,7.29,7.29,0,0,1,6.87-7.61A8.93,8.93,0,0,1,13,12.21c.23.16.42.43.78.37a3.25,3.25,0,0,0,.05-1.28,4.28,4.28,0,0,1,2.38-3.81A2,2,0,0,0,17.1,5.2a.59.59,0,0,0-.61-.32c-.39,0-.79,0-1.18,0-.54,0-.84-.19-.79-.78a8.61,8.61,0,0,0,0-.88c0-.55.19-.84.76-.81.3,0,.6,0,.89,0,.81.1,1-.29,1-1,0-.42-.23-1,.22-1.23A3.39,3.39,0,0,1,19.1.07a.38.38,0,0,1,.36.39c0,.24,0,.49,0,.73,0,1.4,0,1.48,1.39,1.43,1,0,1,.45,1,1.17,0,1.18,0,1.15-1,1.24-.46,0-1.13-.37-1.32.47a1.56,1.56,0,0,0,.78,1.93,4.43,4.43,0,0,1,2.48,4.34Zm11.82,5.86c0-3.42-1.68-5.69-4.41-6.07a8,8,0,0,0-6,1.42c-3.37,2.49-4.77,6-5.11,10-.06.73.32.87,1,.92a26.2,26.2,0,0,1,8.54,2.07A1.13,1.13,0,0,0,30,26.82a22.89,22.89,0,0,0,3-3.42A8.25,8.25,0,0,0,34.58,18.77ZM1.92,18.39a8.75,8.75,0,0,0,.89,4A20.88,20.88,0,0,0,6.88,27.2c.3.3.57.24.92.09a26.5,26.5,0,0,1,8.84-2.17c.62-.05.84-.23.8-.87a13.13,13.13,0,0,0-4.5-9.59,8.14,8.14,0,0,0-5.29-2A5.32,5.32,0,0,0,1.92,18.39Zm6,11.82a33.21,33.21,0,0,1,20.72,0c.21-1.2.21-1.22-.63-1.59A13.77,13.77,0,0,0,26.36,28a31.71,31.71,0,0,0-13.15-.71,18.49,18.49,0,0,0-4.54,1.22C7.81,28.88,7.58,29.38,7.94,30.21Zm20.75,3c.41-.94-.11-1.32-.9-1.6A29.59,29.59,0,0,0,16.16,30.2,23.75,23.75,0,0,0,8.8,31.59c-1.09.42-1.11.5-.77,1.63A37.3,37.3,0,0,1,28.69,33.17ZM18.2,18.62c.83-1.78,1.62-3.41,2.35-5.06a4.62,4.62,0,0,0,.35-1.42,2.68,2.68,0,0,0-2.62-3.07,2.56,2.56,0,0,0-2.77,2.87,5.11,5.11,0,0,0,.56,2.12C16.76,15.52,17.44,17,18.2,18.62Z"/><path class="cls-1" d="M32.92,18.74c-.06,3-1.83,5-3.81,6.88a.73.73,0,0,1-.82.08A38,38,0,0,0,21,24c-.45-.06-.55-.28-.48-.69.49-3.1,1.63-5.86,4.29-7.75a6.25,6.25,0,0,1,4.73-1.21C31.8,14.68,33,16.29,32.92,18.74Z"/><path class="cls-1" d="M3.69,18.87c0-3.25,2.18-5.08,5.14-4.57A7.53,7.53,0,0,1,13.44,17,12.42,12.42,0,0,1,16,22.84c.11.66,0,1-.71,1.09a30.9,30.9,0,0,0-6.84,1.72.91.91,0,0,1-1.08-.12C5.35,23.66,3.65,21.61,3.69,18.87Z"/><path class="cls-1" d="M18.33,15.24a7.88,7.88,0,0,1-1-3.18c0-.87.35-1.36,1-1.36a1.24,1.24,0,0,1,1,1.36A8.26,8.26,0,0,1,18.33,15.24Z"/></g></g></svg>