<svg xmlns="http://www.w3.org/2000/svg" viewBox="0 0 34.95 36.64"><defs><style>.cls-1{fill:#fff;}</style></defs><g id="Capa_2" data-name="Capa 2"><g id="Capa_1-2" data-name="Capa 1"><path class="cls-1" d="M17.58,31.87c-1.41,2.13-3.51,2.73-5.79,2.78a21.37,21.37,0,0,0-9.16,1.88c-.49.24-.71.08-.94-.31-.49-.8-1-1.6-1.49-2.37-.39-.56-.16-.89.3-1.21A9.12,9.12,0,0,1,6,30.86c2.22,0,4.43,0,6.64.05.76,0,1.49-.05,1.92-.81-.18-.43-.56-.34-.89-.39s-.59-.06-.88-.11c-3.15-.59-3.52-1-3.48-4.25,0-.4.08-.79.07-1.18a4.88,4.88,0,0,0-1.17-3.65c-1.85-1.91-2.43-7.17.56-10a33,33,0,0,1,5.3-3.72,7,7,0,0,0,2.1-1.52c-1.92-2-2-3-.48-4.45a2.41,2.41,0,0,1,3.65,0c1.26,1.35,1,2.55-1.05,4.46A4.78,4.78,0,0,0,20,6.6a32.88,32.88,0,0,1,4.91,3.25,7.56,7.56,0,0,1,2.35,8.79,4,4,0,0,1-.92,1.66,4,4,0,0,0-1.06,3.51c.05,1,.05,2,.13,3A2,2,0,0,1,24,28.92a12,12,0,0,1-3.13.8c-.18,0-.4,0-.48.25s.12.44.31.58a2.52,2.52,0,0,0,1.69.36c2.07,0,4.14-.05,6.2-.05a9.63,9.63,0,0,1,5.57,1.65c.93.63.93.65.35,1.62-.41.67-.84,1.33-1.25,2-.25.42-.45.66-1,.35a16.67,16.67,0,0,0-8.12-1.79,10.06,10.06,0,0,1-4.42-1A5.24,5.24,0,0,1,17.58,31.87ZM17.12,18c.67,0,1.31.13,1.28-.83,0-.57-.25-1.27.15-1.7s1.21-.15,1.83-.23h.15c.44,0,.57-.23.61-.64.13-1.06,0-1.28-1.13-1.32h-.74c-.61,0-.93-.2-.89-.85,0-.3,0-.6,0-.89.07-.74-.2-1.06-1-1-1.09.05-1.1,0-1.12,1.32s.22,1.48-1.43,1.45l-.59,0c-.43,0-.55.26-.59.66-.12,1.12,0,1.29,1.3,1.28s1.31.08,1.31,1.28a5.8,5.8,0,0,1,0,.59C16.18,17.84,16.51,18.11,17.12,18Zm-6.35,8.64c.89-.19,1.7-.39,2.52-.53a24.7,24.7,0,0,1,9.5.27c.28.06.7.36.86-.17a.73.73,0,0,0-.4-1c-.14-.06-.26-.14-.4-.19a18.06,18.06,0,0,0-11.42.17C10.72,25.46,10.51,25.87,10.77,26.65Zm12.84-3.21c.09-.69.26-1.22-.53-1.54a14.61,14.61,0,0,0-11.7.11c-.67.28-.86.71-.48,1.41A18.17,18.17,0,0,1,23.61,23.44Z"/></g></g></svg>