<svg xmlns="http://www.w3.org/2000/svg" viewBox="0 0 24 24">
    <g fill-rule="evenodd">
        <g fill-rule="nonzero">
            <path d="M22.654 3.197h-1.879V1.32c0-.66-.536-1.196-1.196-1.196-.66 0-1.197.535-1.197 1.196v1.877h-1.876c-.662 0-1.197.536-1.197 1.197s.536 1.197 1.197 1.197h1.876v1.875c0 .66.536 1.197 1.197 1.197.66 0 1.196-.536 1.196-1.197V5.59h1.879c.661 0 1.196-.536 1.196-1.197s-.536-1.196-1.196-1.196zM13.031 13.55l3.163-1.744c.282-.155.443-.464.408-.784-.035-.32-.26-.587-.568-.678L1.2 5.984c-.28-.082-.582-.005-.788.202-.207.206-.284.508-.201.788l4.36 14.832c.09.31.357.533.677.568.32.035.63-.125.785-.407l1.743-3.16 4.828 4.828c.424.423 1.11.423 1.533 0l3.724-3.724c.423-.423.423-1.108 0-1.532l-4.83-4.828z" transform="translate(-546 -870) translate(61 855) translate(484 15) translate(.887 .047)"/>
        </g>
    </g>
</svg>
