<svg width="24" height="24" viewBox="0 0 24 24" xmlns="http://www.w3.org/2000/svg">
    <path d="M12 4C6.86912 4 2.40029 7.2226 0 12.0001C2.40029 16.7785 6.86912 19.9999 12 19.9999C17.1309 19.9999 21.5997 16.7785 24 12.0001C21.5997 7.22289 17.1309 4 12 4ZM12 18.0001C8.13867 18.0001 4.49221 15.7255 2.27848 12.0001C4.49215 8.27471 8.13867 6.0001 12 6.0001C15.8613 6.0001 19.5078 8.27471 21.7215 12.0001C19.5078 15.7255 15.8613 18.0001 12 18.0001Z" />
    <path d="M12 7.50012C9.51357 7.50012 7.5 9.51369 7.5 12.0001C7.5 14.4856 9.51357 16.5001 12 16.5001C14.4852 16.5001 16.5 14.4856 16.5 12.0001C16.5 9.51369 14.4852 7.50012 12 7.50012ZM12 14.5003C10.6191 14.5003 9.5001 13.3813 9.5001 12.0001C9.5001 10.6192 10.6191 9.50022 12 9.50022C13.3809 9.50022 14.4999 10.6192 14.4999 12.0001C14.4999 13.3813 13.3809 14.5003 12 14.5003Z" />
</svg>