<?xml version="1.0" encoding="utf-8"?>
<!-- Generator: Adobe Illustrator 21.1.0, SVG Export Plug-In . SVG Version: 6.00 Build 0)  -->
<svg version="1.1" id="Слой_1" xmlns="http://www.w3.org/2000/svg" xmlns:xlink="http://www.w3.org/1999/xlink" x="0px" y="0px"
	 viewBox="0 0 679 679" style="enable-background:new 0 0 679 679;" xml:space="preserve">
<style type="text/css">
	.st0{fill:none;}
	.st1{fill:#010101;}
	.st2{fill:#4A4A4A;}
	.st3{fill:#FFCF9B;}
	.st4{fill:#D08A3D;}
</style>
<path class="st0" d="M0,0"/>
<path class="st1" d="M84.9,0h84.9v84.9H84.9V0z"/>
<path class="st2" d="M169.8,0h84.9v84.9h-84.9V0z"/>
<path class="st1" d="M0,84.9h84.9v84.9H0V84.9z"/>
<path class="st2" d="M84.9,84.9h84.9v84.9H84.9V84.9z"/>
<path class="st2" d="M0,0h84.9v84.9H0V0z"/>
<path class="st1" d="M169.8,84.9h84.9v84.9h-84.9V84.9z"/>
<path class="st2" d="M254.6,84.9h84.9v84.9h-84.9V84.9z"/>
<path class="st1" d="M339.5,84.9h84.9v84.9h-84.9V84.9z"/>
<path class="st2" d="M424.4,84.9h84.9v84.9h-84.9V84.9z"/>
<path class="st1" d="M509.3,84.9h84.9v84.9h-84.9V84.9z"/>
<path class="st2" d="M594.1,84.9H679v84.9h-84.9V84.9z"/>
<path class="st1" d="M254.6,0h84.9v84.9h-84.9V0z"/>
<path class="st2" d="M339.5,0h84.9v84.9h-84.9V0z"/>
<path class="st1" d="M594.1,0H679v84.9h-84.9V0z"/>
<path class="st1" d="M424.4,0h84.9v84.9h-84.9V0z"/>
<path class="st2" d="M509.3,0h84.9v84.9h-84.9V0z"/>
<path class="st3" d="M0,0"/>
<path class="st2" d="M0,169.8h84.9v84.9H0V169.8z"/>
<path class="st1" d="M84.9,169.8h84.9v84.9H84.9V169.8z"/>
<path class="st2" d="M169.8,169.8h84.9v84.9h-84.9V169.8z"/>
<path class="st1" d="M0,254.6h84.9v84.9H0V254.6z"/>
<path class="st2" d="M84.9,254.6h84.9v84.9H84.9V254.6z"/>
<path class="st1" d="M169.8,254.6h84.9v84.9h-84.9V254.6z"/>
<path class="st2" d="M254.6,254.6h84.9v84.9h-84.9V254.6z"/>
<path class="st1" d="M339.5,254.6h84.9v84.9h-84.9V254.6z"/>
<path class="st2" d="M424.4,254.6h84.9v84.9h-84.9V254.6z"/>
<path class="st1" d="M509.3,254.6h84.9v84.9h-84.9V254.6z"/>
<path class="st2" d="M594.1,254.6H679v84.9h-84.9V254.6z"/>
<path class="st1" d="M254.6,169.8h84.9v84.9h-84.9V169.8z"/>
<path class="st2" d="M339.5,169.8h84.9v84.9h-84.9V169.8z"/>
<path class="st1" d="M424.4,169.8h84.9v84.9h-84.9V169.8z"/>
<path class="st2" d="M509.3,169.8h84.9v84.9h-84.9V169.8z"/>
<path class="st1" d="M594.1,169.8H679v84.9h-84.9V169.8z"/>
<path class="st2" d="M0,339.5h84.9v84.9H0V339.5z"/>
<path class="st1" d="M84.9,339.5h84.9v84.9H84.9V339.5z"/>
<path class="st2" d="M169.8,339.5h84.9v84.9h-84.9V339.5z"/>
<path class="st1" d="M0,424.4h84.9v84.9H0V424.4z"/>
<path class="st2" d="M84.9,424.4h84.9v84.9H84.9V424.4z"/>
<path class="st1" d="M169.8,424.4h84.9v84.9h-84.9V424.4z"/>
<path class="st2" d="M254.6,424.4h84.9v84.9h-84.9V424.4z"/>
<path class="st1" d="M339.5,424.4h84.9v84.9h-84.9V424.4z"/>
<path class="st2" d="M424.4,424.4h84.9v84.9h-84.9V424.4z"/>
<path class="st1" d="M509.3,424.4h84.9v84.9h-84.9V424.4z"/>
<path class="st2" d="M594.1,424.4H679v84.9h-84.9V424.4z"/>
<path class="st1" d="M254.6,339.5h84.9v84.9h-84.9V339.5z"/>
<path class="st2" d="M339.5,339.5h84.9v84.9h-84.9V339.5z"/>
<path class="st1" d="M424.4,339.5h84.9v84.9h-84.9V339.5z"/>
<path class="st2" d="M509.3,339.5h84.9v84.9h-84.9V339.5z"/>
<path class="st1" d="M594.1,339.5H679v84.9h-84.9V339.5z"/>
<path class="st2" d="M0,509.3h84.9v84.9H0V509.3z"/>
<path class="st1" d="M84.9,509.3h84.9v84.9H84.9V509.3z"/>
<path class="st2" d="M169.8,509.3h84.9v84.9h-84.9V509.3z"/>
<path class="st3" d="M0,0"/>
<path class="st2" d="M84.9,594.1h84.9V679H84.9V594.1z"/>
<path class="st1" d="M169.8,594.1h84.9V679h-84.9V594.1z"/>
<path class="st1" d="M0,594.1h84.9V679H0V594.1z"/>
<path class="st2" d="M254.6,594.1h84.9V679h-84.9V594.1z"/>
<path class="st1" d="M339.5,594.1h84.9V679h-84.9V594.1z"/>
<path class="st2" d="M424.4,594.1h84.9V679h-84.9V594.1z"/>
<path class="st2" d="M594.1,594.1H679V679h-84.9V594.1z"/>
<path class="st1" d="M509.3,594.1h84.9V679h-84.9V594.1z"/>
<path class="st4" d="M0,0"/>
<path class="st1" d="M254.6,509.3h84.9v84.9h-84.9V509.3z"/>
<path class="st2" d="M339.5,509.3h84.9v84.9h-84.9V509.3z"/>
<path class="st1" d="M424.4,509.3h84.9v84.9h-84.9V509.3z"/>
<path class="st2" d="M509.3,509.3h84.9v84.9h-84.9V509.3z"/>
<path class="st1" d="M594.1,509.3H679v84.9h-84.9V509.3z"/>
</svg>
