<svg xmlns="http://www.w3.org/2000/svg" viewBox="0 0 19 19">
    <g fill-rule="evenodd">
            <g transform="translate(-785 -103) translate(785 103)">
                <path d="M9.5.792c4.81 0 8.708 3.899 8.708 8.708 0 4.81-3.899 8.708-8.708 8.708C4.69 18.208.792 14.31.792 9.5.792 4.69 4.69.792 9.5.792zm0 1.583c-3.935 0-7.125 3.19-7.125 7.125s3.19 7.125 7.125 7.125 7.125-3.19 7.125-7.125-3.19-7.125-7.125-7.125z"/>
                <path d="M15.345 1.695h2.375c.437 0 .791.354.791.792 0 .437-.354.791-.791.791h-2.375c-.437 0-.792-.354-.792-.791 0-.438.355-.792.792-.792z" transform="rotate(45 16.532 2.487)"/>
                <rect width="1.583" height="7.125" x="8.708" y="3.167" rx=".792"/>
                <path d="M8.114 7.937c.437 0 .791.354.791.792v3.166c0 .437-.354.792-.791.792-.437 0-.792-.355-.792-.792V8.73c0-.438.355-.792.792-.792z" transform="rotate(-120 8.114 10.312)"/>
            </g>
    </g>
</svg>
